<svg xmlns="http://www.w3.org/2000/svg" fill="none" viewBox="-1.880 -1.868 27.760 27.760" preserveAspectRatio="xMidYMid meet">
<!-- SVG created with Arrow, by QuiverAI (https://quiver.ai) -->
  
  <ellipse cx="12" cy="4.635" rx="8.093" ry="2.617" stroke="currentColor" stroke-width=".4636"></ellipse>
  <path d="m3.909 4.634v4.286c0 1.54 3.614 2.709 8.091 2.709s8.091-1.231 8.091-2.709v-4.286" stroke="currentColor" stroke-width=".4636"></path>
  <path d="m4.483 9.997-0.5029 0.3086c-0.04286 0.02571-0.07143 0.07143-0.07143 0.1229v3.634c0 1.54 3.614 2.729 8.091 2.729s8.091-1.251 8.091-2.729v-3.651c0-0.04571-0.02286-0.08571-0.06-0.1086l-0.5143-0.3057" stroke="currentColor" stroke-width=".4636"></path>
  <path d="m4.483 15.23-0.5114 0.28c-0.03714 0.02286-0.06286 0.06-0.06286 0.1029v3.623c0 1.617 3.614 2.769 8.091 2.769s8.091-1.257 8.091-2.769v-3.64c0-0.03714-0.02-0.07143-0.05143-0.08857l-0.54-0.3029" stroke="currentColor" stroke-width=".4636"></path>
</svg>
