<svg xmlns="http://www.w3.org/2000/svg" fill="none" viewBox="-2.140 -2.178 28.302 28.302" preserveAspectRatio="xMidYMid meet">
<!-- SVG created with Arrow, by QuiverAI (https://quiver.ai) -->
  
  <circle cx="6.697" cy="2.671" r=".8866" stroke="currentColor" stroke-width=".5538"></circle>
  <circle cx="12.73" cy="2.671" r=".8866" stroke="currentColor" stroke-width=".5538"></circle>
  <circle cx="17.92" cy="19.83" r="2.332" stroke="currentColor" stroke-width=".5538"></circle>
  <circle cx="17.92" cy="19.83" r=".9855" stroke="currentColor" stroke-width=".5538"></circle>
  <path d="m5.811 2.721c-1.143 0.09-2.04 0.843-2.04 2.07 0 1.731 1.554 5.01 3.993 6.426 1.365 0.804 1.908 1.548 1.908 1.956" stroke="currentColor" stroke-width=".6134"></path>
  <path d="m13.64 2.721c1.143 0.09 1.977 0.843 1.977 2.07 0 1.731-1.674 5.064-4.068 6.468-1.398 0.828-1.875 1.527-1.875 1.935" stroke="currentColor" stroke-width=".6134"></path>
  <path d="m9.672 13.08v3.939c0 2.556 1.956 3.588 3.57 3.588 1.053 0 1.95-0.468 2.325-0.81" stroke="currentColor" stroke-width=".6134"></path>
</svg>
